# xmcd CD database file
#
# Track frame offsets:
#	150
#	15452
#	26704
#	39109
#	52161
#	71663
#	81565
#	95667
#	104369
#	116221
#	125223
#	142025
#	150727
#
# Disc length: 2295 seconds
#
# Revision: 0
# Processed by: cddbd v1.5.1PL0 Copyright (c) Steve Scherf et al.
# Submitted via: CDex 1.40Beta9
#
DISCID=bd08f50d
DTITLE=Michael McCrary - Welcome To The Acoustic Lounge
DYEAR=2003
DGENRE=Country
TTITLE0=Dream
TTITLE1=Too Far To See
TTITLE2=Make Up Your Mind
TTITLE3=What Do We Do Now
TTITLE4=Hard to Know Me
TTITLE5=Colorado
TTITLE6=It's Not the Money
TTITLE7=Sunday Morning
TTITLE8=Crazy Hair
TTITLE9=Shoulda Known Better
TTITLE10=Old Farm Road
TTITLE11=Last Good One
TTITLE12=Doorstep To The Top of the World
EXTD=YEAR: 2003 ID3G: 2
EXTT0=
EXTT1=
EXTT2=
EXTT3=
EXTT4=
EXTT5=
EXTT6=
EXTT7=
EXTT8=
EXTT9=
EXTT10=
EXTT11=
EXTT12=
PLAYORDER=
